# xmcd
#
# Track frame offsets:
#	150
#	15182
#	26223
#	41764
#	60730
#	75136
#	86598
#	98672
#	116956
#	129797
#
# Disc length: 1885 seconds
# Revision: 0
# Processed by: cddbd v1.5.2PL0 Copyright (c) Steve Scherf et al.
# Submitted via: dBpowerAMP V12.0
#
DISCID=6d075b0a
DTITLE=Loaded Goat - Sick and Tired
DYEAR=2012
DGENRE=
TTITLE0=Sick N Tired
TTITLE1=Shine
TTITLE2=Awful Times
TTITLE3=Hell No
TTITLE4=Leave Me Alone
TTITLE5=Sittin Here Fishing
TTITLE6=Whereyabeento
TTITLE7=Far Away
TTITLE8=Hey Hey
TTITLE9=I Never, I Wish
EXTD=
EXTT0=
EXTT1=
EXTT2=
EXTT3=
EXTT4=
EXTT5=
EXTT6=
EXTT7=
EXTT8=
EXTT9=
PLAYORDER=
